<svg width="11" height="10" viewBox="0 0 11 10" fill="none" xmlns="http://www.w3.org/2000/svg">
<g id="Frame" clip-path="url(#clip0_9273_3549)">
<g id="Group">
<path id="Vector" d="M10.1673 2.29069C9.96768 2.08156 9.69201 1.95799 9.37833 1.95799H7.80038V1.93898C7.80038 1.70134 7.70532 1.4732 7.54373 1.32111C7.38213 1.15951 7.1635 1.06445 6.92585 1.06445H4.07414C3.827 1.06445 3.60836 1.15951 3.44677 1.32111C3.28517 1.4827 3.19011 1.70134 3.19011 1.93898V1.95799H1.62167C1.30798 1.95799 1.03232 2.08156 0.8327 2.29069C0.63308 2.49031 0.5 2.77548 0.5 3.07966V7.8135C0.5 8.12719 0.623574 8.40286 0.8327 8.60248C1.03232 8.8021 1.31749 8.93517 1.62167 8.93517H9.37833C9.69201 8.93517 9.96768 8.8116 10.1673 8.60248C10.3669 8.40286 10.5 8.11768 10.5 7.8135V3.07966C10.5 2.76597 10.3764 2.49031 10.1673 2.29069ZM10.0057 7.8135H9.9962C9.9962 7.9846 9.92966 8.1367 9.81559 8.25076C9.70152 8.36483 9.54943 8.43137 9.37833 8.43137H1.62167C1.45057 8.43137 1.29848 8.36483 1.18441 8.25076C1.07034 8.1367 1.0038 7.9846 1.0038 7.8135V3.07966C1.0038 2.90856 1.07034 2.75647 1.18441 2.6424C1.29848 2.52833 1.45057 2.46179 1.62167 2.46179H3.45627C3.59886 2.46179 3.71293 2.34772 3.71293 2.20514V1.92947C3.71293 1.82491 3.75095 1.72985 3.81749 1.66331C3.88403 1.59677 3.97909 1.55875 4.08365 1.55875H6.92585C7.03042 1.55875 7.12547 1.59677 7.19201 1.66331C7.25855 1.72985 7.29658 1.82491 7.29658 1.92947V2.20514C7.29658 2.34772 7.41065 2.46179 7.55323 2.46179H9.38783C9.55893 2.46179 9.71103 2.52833 9.82509 2.6424C9.93916 2.75647 10.0057 2.90856 10.0057 3.07966V7.8135Z" fill="#01030B" fill-opacity="0.6"/>
<path id="Vector_2" d="M5.49954 3.1084C4.85315 3.1084 4.26379 3.37456 3.84554 3.79281C3.41779 4.22057 3.16113 4.80041 3.16113 5.4468C3.16113 6.09319 3.42729 6.68254 3.84554 7.10079C4.2733 7.52855 4.85315 7.7852 5.49954 7.7852C6.14592 7.7852 6.73528 7.51904 7.15353 7.10079C7.58128 6.67304 7.83794 6.09319 7.83794 5.4468C7.83794 4.80041 7.57178 4.21106 7.15353 3.79281C6.73528 3.37456 6.14592 3.1084 5.49954 3.1084ZM6.79231 6.74908C6.45961 7.07228 6.00334 7.2814 5.49954 7.2814C4.99573 7.2814 4.53946 7.07228 4.20676 6.74908C3.87406 6.41638 3.67444 5.96011 3.67444 5.45631C3.67444 4.9525 3.88357 4.49623 4.20676 4.16353C4.53946 3.83083 4.99573 3.63121 5.49954 3.63121C6.00334 3.63121 6.45961 3.84034 6.79231 4.16353C7.12501 4.49623 7.32463 4.9525 7.32463 5.45631C7.33414 5.96011 7.12501 6.41638 6.79231 6.74908Z" fill="#01030B" fill-opacity="0.6"/>
<path id="Vector_3" d="M8.88375 4.03019C9.14099 4.03019 9.34953 3.82166 9.34953 3.56441C9.34953 3.30717 9.14099 3.09863 8.88375 3.09863C8.6265 3.09863 8.41797 3.30717 8.41797 3.56441C8.41797 3.82166 8.6265 4.03019 8.88375 4.03019Z" fill="#01030B" fill-opacity="0.6"/>
</g>
</g>
<defs>
<clipPath id="clip0_9273_3549">
<rect width="10" height="10" fill="white" transform="translate(0.5)"/>
</clipPath>
</defs>
</svg>
