<svg width="24" height="24" viewBox="0 0 24 24" fill="none" xmlns="http://www.w3.org/2000/svg">
<g id="Frame">
<g id="Group">
<path id="Vector" d="M23.8474 11.5332C23.633 11.2399 18.5244 4.35168 11.9999 4.35168C5.47528 4.35168 0.366464 11.2399 0.152292 11.5329C0.0533293 11.6685 0 11.832 0 11.9999C0 12.1677 0.0533293 12.3312 0.152292 12.4668C0.366464 12.7601 5.47528 19.6484 11.9999 19.6484C18.5244 19.6484 23.633 12.7601 23.8474 12.4671C23.9465 12.3315 23.9999 12.168 23.9999 12.0001C23.9999 11.8323 23.9465 11.6687 23.8474 11.5332ZM11.9999 18.066C7.19381 18.066 3.03126 13.4941 1.79906 11.9995C3.02967 10.5036 7.18349 5.93409 11.9999 5.93409C16.8057 5.93409 20.9679 10.5052 22.2007 12.0006C20.97 13.4964 16.8162 18.066 11.9999 18.066Z" fill="black"/>
<path id="Vector_2" d="M11.9999 7.25281C9.38227 7.25281 7.25259 9.38248 7.25259 12.0001C7.25259 14.6177 9.38227 16.7473 11.9999 16.7473C14.6175 16.7473 16.7471 14.6177 16.7471 12.0001C16.7471 9.38248 14.6175 7.25281 11.9999 7.25281ZM11.9999 15.1649C10.2547 15.1649 8.83505 13.7452 8.83505 12.0001C8.83505 10.255 10.2547 8.83526 11.9999 8.83526C13.745 8.83526 15.1647 10.255 15.1647 12.0001C15.1647 13.7452 13.745 15.1649 11.9999 15.1649Z" fill="black"/>
</g>
</g>
</svg>
